<?xml version="1.0" standalone="no"?>
<!DOCTYPE svg PUBLIC "-//W3C//DTD SVG 20010904//EN"
 "http://www.w3.org/TR/2001/REC-SVG-20010904/DTD/svg10.dtd">
<svg version="1.0" xmlns="http://www.w3.org/2000/svg"
 width="798.000000pt" height="868.000000pt" viewBox="0 0 798.000000 868.000000"
 preserveAspectRatio="xMidYMid meet">

<g transform="translate(0.000000,868.000000) scale(0.100000,-0.100000)"
fill="#000000" stroke="none">
<path d="M2585 7551 c-90 -22 -167 -96 -242 -232 -68 -123 -173 -388 -173
-437 0 -8 -13 -58 -30 -111 -24 -81 -69 -320 -120 -646 -15 -102 -37 -271 -65
-515 -23 -203 -34 -286 -71 -525 -60 -381 -185 -615 -354 -661 l-45 -13 84 0
c65 -1 94 4 126 19 179 87 287 337 326 753 17 181 25 182 48 7 9 -71 31 -169
66 -300 4 -14 13 -39 21 -57 8 -17 14 -35 14 -40 0 -15 31 -75 36 -70 3 2 -5
65 -18 138 -17 107 -22 176 -22 344 -1 236 4 276 69 544 50 203 61 284 70 506
16 384 79 758 165 978 36 91 104 224 154 300 20 29 16 31 -39 18z"/>
<path d="M5163 7501 c-18 -5 -44 -16 -57 -24 -50 -33 -106 -128 -106 -180 0
-34 30 -45 150 -51 58 -3 128 -12 155 -19 65 -18 194 -82 216 -109 11 -11 23
-17 30 -12 7 4 9 3 6 -3 -4 -6 7 -13 26 -17 36 -7 57 11 57 49 0 40 -62 146
-122 211 -110 117 -253 179 -355 155z"/>
<path d="M2900 7453 c-145 -69 -315 -322 -260 -388 15 -18 36 -8 94 45 77 70
134 108 203 133 75 29 138 35 227 22 51 -7 61 -5 72 10 27 36 -31 137 -105
182 -53 34 -156 32 -231 -4z"/>
<path d="M5745 7372 c7 -20 29 -70 48 -110 19 -39 38 -86 42 -102 4 -17 11
-30 16 -30 5 0 8 -19 7 -42 0 -24 3 -51 7 -62 5 -12 3 -21 -6 -27 -11 -7 -12
-11 -1 -17 9 -6 11 -21 7 -48 -3 -21 -8 -60 -11 -85 l-6 -47 42 4 c30 3 40 0
37 -9 -2 -6 -16 -12 -30 -12 -26 1 -27 -1 -27 -57 0 -54 11 -80 25 -58 3 5 12
10 19 10 14 0 14 -1 -4 -105 -8 -42 -8 -61 -1 -63 17 -6 13 -30 -4 -28 -13 1
-16 -14 -18 -82 -2 -78 -4 -85 -30 -108 -31 -26 -104 -34 -112 -11 -2 6 -17
55 -33 107 -53 171 -153 317 -283 415 -72 53 -73 55 -50 55 29 0 22 24 -8 28
-12 2 -25 10 -28 18 -3 8 -8 12 -12 9 -5 -2 -24 0 -45 6 -20 6 -47 7 -59 3
-21 -7 -20 -8 8 -14 18 -4 -5 -7 -55 -7 -95 -2 -121 -10 -232 -71 -83 -47
-104 -65 -92 -83 4 -7 3 -9 -4 -5 -6 3 -13 -6 -17 -24 -4 -16 -10 -30 -15 -30
-10 0 -48 -103 -59 -162 -5 -27 -5 -48 0 -48 5 0 9 7 9 16 0 29 55 127 97 174
25 27 73 63 115 86 73 39 73 39 189 39 115 0 116 0 193 -39 218 -111 376 -392
376 -670 0 -133 -24 -212 -86 -285 -36 -43 -13 -39 25 4 64 73 96 201 89 350
-5 99 4 86 18 -26 6 -40 10 -47 38 -57 17 -6 38 -22 46 -34 39 -62 140 -273
140 -294 0 -13 5 -24 10 -24 6 0 10 -8 10 -18 0 -10 3 -22 7 -25 3 -4 8 -17 9
-30 2 -12 12 -69 23 -127 33 -172 28 -232 -33 -408 -39 -113 -101 -217 -175
-291 -36 -37 -71 -70 -77 -72 -6 -2 -75 -51 -153 -109 -193 -143 -222 -158
-416 -216 -156 -47 -197 -54 -320 -59 -110 -4 -114 -3 -46 5 41 6 79 14 84 19
6 6 6 25 -1 51 -7 30 -7 57 3 103 38 180 28 257 -31 257 -17 0 -46 -11 -65
-25 -19 -13 -45 -30 -59 -37 -14 -6 -37 -25 -52 -40 -15 -15 -36 -28 -47 -28
-12 0 -21 -6 -21 -14 0 -8 -9 -18 -20 -21 -11 -4 -34 -18 -51 -32 -18 -16 -47
-27 -75 -31 -24 -2 -47 -9 -50 -13 -3 -5 -14 -9 -25 -9 -10 0 -19 -4 -19 -10
0 -5 -21 -10 -46 -10 -25 0 -43 -3 -41 -7 7 -11 -166 -3 -178 8 -12 12 -101
11 -150 -2 -22 -6 -52 -13 -67 -16 -16 -3 -28 -9 -28 -14 0 -5 -9 -9 -20 -9
-11 0 -20 -5 -20 -11 0 -7 -15 -9 -42 -4 -37 5 -41 4 -26 -7 14 -12 5 -16 -65
-27 -45 -7 -120 -24 -167 -38 -79 -24 -94 -25 -210 -20 -84 4 -148 14 -195 28
-122 37 -331 83 -285 63 33 -15 149 -90 205 -134 33 -26 107 -94 165 -151 58
-57 132 -125 165 -150 82 -63 174 -123 180 -117 2 2 -4 28 -15 56 -29 75 -60
223 -60 284 l0 52 28 -26 c32 -30 131 -59 301 -89 120 -21 278 -33 556 -44
153 -6 215 -16 243 -38 9 -7 17 -5 27 9 22 30 19 -1 -10 -90 -35 -108 -56
-146 -122 -216 -100 -108 -265 -172 -443 -172 -92 0 -194 18 -238 41 -42 22
-46 10 -5 -17 27 -18 39 -32 33 -38 -12 -12 7 -93 28 -116 14 -16 13 -18 -2
-18 -15 0 -16 -7 -10 -45 5 -40 3 -48 -16 -65 -13 -11 -32 -20 -44 -21 -12 0
-15 -3 -8 -6 6 -2 12 -9 12 -15 0 -7 -26 -9 -77 -5 l-78 5 89 -37 c83 -34 90
-40 113 -84 13 -27 30 -50 38 -54 8 -3 15 -10 15 -17 0 -6 11 -23 25 -38 13
-14 27 -39 31 -55 4 -15 12 -35 18 -43 22 -30 46 -78 46 -94 0 -9 6 -27 14
-39 12 -19 23 -86 40 -242 5 -46 -15 -147 -36 -177 -20 -29 -23 -45 -8 -50 6
-2 4 -15 -5 -32 -8 -15 -15 -33 -15 -40 -1 -6 -21 -31 -45 -56 -25 -25 -45
-54 -46 -65 0 -11 -3 -14 -6 -7 -6 14 -33 16 -33 2 0 -12 -83 -3 -122 13 -14
6 -33 23 -42 38 -9 15 -30 39 -46 53 -17 13 -30 28 -30 31 0 4 -11 20 -24 36
-14 16 -48 71 -77 122 -28 50 -69 118 -91 149 -43 64 -95 122 -85 96 3 -9 1
-18 -4 -20 -7 -2 -14 -78 -20 -188 -9 -204 -13 -244 -36 -405 -21 -146 -23
-485 -4 -628 13 -92 18 -109 38 -122 26 -17 30 -40 9 -48 -7 -3 -16 -14 -18
-25 -5 -18 -2 -20 28 -15 39 6 40 3 19 -37 -14 -28 -14 -31 5 -50 40 -40 19
-64 -44 -50 -35 8 -36 7 -30 -19 4 -14 7 -28 6 -31 0 -43 -3 -43 -52 7 -64 65
-83 71 -97 27 -5 -19 -6 -34 -2 -34 5 0 9 -5 9 -10 0 -21 44 -70 62 -70 13 0
18 -8 18 -28 0 -16 -3 -32 -7 -36 -5 -4 -8 -51 -8 -104 0 -86 -3 -102 -25
-139 -48 -80 -95 -143 -106 -143 -6 0 -23 -18 -37 -39 -15 -22 -47 -52 -72
-66 -25 -15 -45 -31 -45 -36 0 -5 -4 -9 -9 -9 -4 0 -13 26 -19 58 -7 31 -13
66 -16 77 -2 11 -4 -1 -5 -27 -2 -81 -18 -61 -25 30 -16 215 0 460 34 546 18
43 19 52 6 64 -21 21 -36 6 -36 -37 0 -21 -6 -59 -14 -85 -21 -68 -30 -170
-18 -192 7 -12 7 -26 -1 -43 -9 -23 -26 -173 -27 -239 0 -28 -27 -82 -40 -82
-6 0 -10 -7 -10 -16 0 -8 -19 -24 -45 -35 -25 -11 -45 -26 -45 -33 0 -7 -12
-19 -26 -26 -20 -11 -29 -12 -44 -2 -31 19 -67 14 -94 -13 -14 -14 -29 -25
-33 -25 -5 0 -23 22 -41 50 l-33 50 -41 -30 c-22 -17 -47 -30 -55 -30 -18 0
-16 -11 10 -40 44 -50 48 -52 317 -100 25 -4 151 -11 280 -14 305 -9 522 12
830 80 165 37 196 50 355 145 22 13 107 42 189 64 l148 41 -1 109 c-2 139 11
188 93 357 85 174 116 266 165 483 15 65 30 236 31 350 1 64 4 84 11 70 11
-25 2 254 -15 420 -10 108 -13 120 -30 117 -17 -3 -18 1 -12 36 6 42 50 135
72 153 10 8 17 3 29 -20 8 -17 23 -32 33 -33 9 -1 26 -2 37 -3 54 -4 97 -20
118 -44 12 -14 39 -37 60 -51 20 -14 37 -28 37 -32 0 -5 8 -8 18 -8 11 0 24
-11 30 -25 6 -14 19 -25 27 -25 9 0 21 -13 26 -29 12 -33 73 -86 89 -76 6 4
10 -6 10 -23 0 -22 6 -31 21 -35 11 -3 23 -15 26 -26 3 -12 9 -21 14 -21 5 0
12 -15 17 -32 6 -23 15 -34 30 -36 12 -2 22 -7 22 -11 0 -4 6 -8 14 -8 9 0 17
16 21 44 3 24 10 43 14 43 5 0 11 24 14 52 3 29 13 104 21 167 9 62 20 159 26
215 5 55 19 178 30 271 27 226 31 417 8 442 -26 29 -33 72 -14 86 10 8 14 20
10 35 -7 26 -34 30 -34 5 -1 -15 -4 -14 -21 6 -15 19 -19 33 -14 60 8 48 -16
65 -70 50 -32 -9 -40 -8 -57 9 -19 19 -40 123 -40 200 0 18 -5 32 -12 32 -20
0 -333 -188 -494 -297 -140 -95 -252 -163 -269 -163 -4 0 3 7 15 16 14 10 21
22 18 31 -4 11 -2 13 9 9 17 -6 20 5 4 21 -8 8 -8 13 0 17 6 4 11 28 11 54 0
26 9 67 20 91 11 24 20 50 20 57 0 8 16 56 35 105 19 50 35 92 35 93 0 0 -12
2 -26 2 -14 1 -28 5 -31 8 -14 13 20 57 74 97 32 24 90 71 129 105 127 110
148 115 195 46 31 -45 80 -62 191 -70 66 -4 83 -1 119 17 23 12 48 20 56 17
18 -7 46 7 100 51 23 18 45 32 50 31 4 -2 9 1 10 7 1 5 11 13 23 17 12 4 18
12 15 18 -3 5 -2 10 4 10 5 0 24 16 43 36 18 20 45 48 61 62 15 14 27 31 27
38 0 7 3 14 8 16 4 2 34 43 66 92 33 48 66 90 73 93 7 3 15 13 18 23 3 11 15
22 26 25 10 4 17 11 14 16 -4 5 -1 9 5 9 14 0 74 132 111 245 30 96 36 116 54
193 20 86 35 80 35 -13 0 -64 32 -293 50 -360 61 -225 159 -325 316 -325 64 0
94 13 94 39 0 6 5 11 11 11 5 0 7 5 4 10 -3 6 -1 10 4 10 6 0 24 14 40 30 23
25 34 30 55 24 31 -7 33 2 6 36 -11 14 -20 28 -20 33 0 4 -9 16 -21 28 -23 23
-18 39 6 19 23 -19 27 -9 26 70 0 70 10 110 29 110 5 0 9 -8 8 -17 -1 -10 0
-37 0 -61 l2 -43 43 3 c37 3 42 6 43 28 1 14 5 38 9 53 7 28 -9 101 -27 121
-4 6 -8 24 -8 42 0 17 -6 37 -14 43 -8 7 -17 28 -21 49 -7 43 -27 92 -37 92
-3 0 -9 13 -13 29 -3 16 -15 37 -26 47 -10 9 -19 23 -19 30 0 18 -49 125 -65
144 -8 8 -25 45 -39 83 -14 37 -32 82 -39 100 -16 36 -73 217 -83 262 -4 17
-10 35 -14 40 -5 6 -11 27 -15 48 -4 20 -11 37 -15 37 -4 0 -13 14 -19 30 -5
17 -14 30 -19 30 -24 0 -49 -183 -57 -420 -7 -188 -18 -290 -38 -321 -16 -26
-20 -24 -35 19 -32 89 -53 208 -64 364 -11 154 -20 194 -30 128 -2 -14 -7 81
-11 210 -11 351 -31 587 -59 690 -5 19 -15 60 -23 90 -7 30 -20 79 -29 108 -9
28 -22 74 -30 101 -47 160 -211 400 -295 429 l-30 10 14 -36z m-1442 -2928
c20 -3 40 -11 44 -16 4 -7 -6 -8 -28 -3 -19 4 -62 9 -97 12 -39 3 -60 9 -56
15 6 10 39 8 137 -8z m-205 -1 c-21 -2 -55 -2 -75 0 -21 2 -4 4 37 4 41 0 58
-2 38 -4z m-123 -12 c-6 -5 -53 -11 -105 -14 -83 -5 -87 -5 -35 4 33 5 64 11
70 13 20 9 79 6 70 -3z m443 -18 c-10 -2 -28 -2 -40 0 -13 2 -5 4 17 4 22 1
32 -1 23 -4z m-695 -20 c-13 -2 -33 -2 -45 0 -13 2 -3 4 22 4 25 0 35 -2 23
-4z m795 0 c-10 -2 -26 -2 -35 0 -10 3 -2 5 17 5 19 0 27 -2 18 -5z m-411
-2193 c32 -40 37 -56 18 -64 -17 -6 -44 5 -76 32 -22 19 -24 33 -7 50 19 19
41 13 65 -18z m-36 -133 c-1 -12 -15 -9 -19 4 -3 6 1 10 8 8 6 -3 11 -8 11
-12z m-260 -1445 c-30 -16 -35 -11 -26 26 l6 30 22 -21 22 -22 -24 -13z"/>
<path d="M3014 6865 c-74 -23 -128 -57 -198 -124 -174 -167 -266 -392 -266
-648 0 -111 8 -158 41 -229 18 -41 57 -86 43 -50 -3 9 -9 16 -13 16 -4 0 -16
26 -26 58 -29 85 -28 297 3 404 63 222 189 386 362 471 79 39 92 42 185 45
121 5 187 -16 261 -81 45 -39 47 -40 26 -10 -27 38 -96 99 -136 120 -81 42
-199 54 -282 28z"/>
<path d="M5077 6496 c-84 -30 -172 -129 -209 -234 -30 -84 -22 -216 16 -293
42 -85 104 -150 180 -188 57 -30 75 -34 145 -34 73 -1 87 3 148 34 126 64 193
180 193 333 0 168 -84 307 -224 372 -41 19 -67 24 -131 23 -44 0 -97 -6 -118
-13z m11 -64 c32 -41 0 -122 -48 -122 -57 0 -79 82 -35 126 27 27 59 26 83 -4z"/>
<path d="M3150 6471 c0 -5 6 -12 13 -15 16 -6 -29 -46 -53 -46 -24 0 -50 -32
-50 -62 0 -18 -7 -27 -22 -32 -13 -3 -25 -1 -27 5 -2 6 -10 1 -17 -10 -12 -16
-12 -24 -3 -39 16 -26 5 -52 -30 -65 -39 -14 -55 -41 -39 -66 25 -40 -55 -84
-90 -49 -21 21 -14 -85 10 -149 26 -70 105 -154 175 -186 36 -16 67 -22 128
-22 69 0 88 4 137 29 73 37 148 112 184 184 53 108 44 269 -21 372 -36 57
-108 116 -169 139 -58 22 -126 28 -126 12z"/>
<path d="M4742 6440 c0 -14 2 -19 5 -12 2 6 2 18 0 25 -3 6 -5 1 -5 -13z"/>
<path d="M5764 6425 c-4 -8 -10 -12 -15 -9 -14 8 -10 -12 9 -45 31 -56 98 -31
70 26 -8 15 -20 27 -26 26 -7 -2 -12 2 -12 7 0 16 -20 12 -26 -5z"/>
<path d="M3980 5785 c-232 -35 -398 -132 -445 -258 -25 -67 -17 -184 19 -260
56 -117 214 -230 416 -297 89 -30 102 -32 200 -27 78 4 124 12 180 32 78 27
141 55 150 66 3 4 25 17 50 30 25 13 54 31 64 41 11 10 23 18 27 18 4 0 10 8
13 18 3 9 16 28 29 42 49 53 72 173 52 270 -7 36 -14 56 -14 45 -2 -18 -3 -18
-16 5 -16 27 -20 54 -5 30 19 -30 23 1 4 36 -85 161 -415 256 -724 209z"/>
<path d="M6815 4610 c3 -5 13 -10 21 -10 8 0 12 5 9 10 -3 6 -13 10 -21 10 -8
0 -12 -4 -9 -10z"/>
<path d="M5680 2713 c-31 -178 -63 -607 -64 -858 -2 -432 40 -571 230 -770
159 -168 194 -235 194 -376 l0 -69 71 0 c127 0 371 43 407 72 37 30 88 93 104
127 36 79 20 142 -69 269 -23 32 -57 87 -75 122 -50 93 -53 98 -81 124 -36 34
-128 66 -188 66 -28 0 -49 3 -47 8 2 4 14 30 26 57 13 28 54 113 92 190 99
201 128 275 115 295 -3 5 -1 10 5 10 5 0 10 12 10 28 0 15 2 77 6 139 13 230
-47 397 -166 458 -31 16 -58 36 -92 68 -10 9 -20 17 -22 17 -3 0 -34 14 -71
31 -108 50 -284 75 -337 47 -12 -5 -18 -5 -18 2 0 5 -4 10 -9 10 -5 0 -14 -30
-21 -67z m638 -1350 c47 -38 88 -120 113 -225 28 -118 21 -130 -26 -40 -22 42
-43 79 -46 82 -3 3 -18 27 -34 53 -15 27 -52 71 -81 99 -30 28 -54 55 -54 61
0 21 91 0 128 -30z"/>
<path d="M2574 2723 c-9 -15 -23 -17 -78 -15 -57 3 -73 0 -100 -19 -47 -32
-102 -146 -136 -284 -34 -135 -85 -286 -100 -295 -5 -3 -16 -22 -24 -41 -8
-20 -35 -58 -60 -86 -25 -28 -46 -55 -46 -60 0 -6 -9 -18 -20 -28 -11 -10 -20
-23 -20 -30 0 -7 -7 -25 -15 -41 -15 -31 -10 -104 7 -104 5 0 7 -4 4 -8 -6
-10 10 -56 47 -134 15 -31 27 -60 27 -63 0 -12 75 -75 89 -75 8 0 12 -3 8 -6
-3 -3 -34 -8 -69 -10 -34 -3 -68 -10 -75 -17 -6 -7 -21 -91 -33 -187 -24 -195
-34 -250 -55 -297 -18 -37 -69 -83 -94 -83 -9 0 -27 -7 -39 -16 -13 -9 -29
-13 -37 -10 -8 3 -15 -2 -17 -11 -3 -15 -5 -15 -20 1 -31 30 -19 5 18 -41 20
-24 52 -50 71 -58 21 -9 99 -19 187 -25 83 -6 170 -13 194 -16 l42 -7 0 60 c0
63 21 150 48 192 8 14 55 67 103 116 121 125 187 220 220 317 42 124 50 195
56 453 5 227 -12 595 -32 695 -3 14 -10 59 -15 100 -5 41 -13 92 -17 113 -7
32 -10 35 -19 20z m-358 -1341 c5 -4 21 -32 34 -62 20 -46 24 -72 25 -155 0
-85 -3 -107 -24 -148 -29 -59 -84 -116 -134 -139 -55 -26 -81 -23 -94 10 -10
24 -11 25 -12 5 -1 -12 -5 -24 -10 -27 -26 -17 -38 131 -17 222 42 187 114
302 187 302 19 0 39 -4 45 -8z"/>
<path d="M5301 863 c-1 -138 -2 -144 -34 -215 l-34 -73 21 -17 c21 -16 21 -16
-21 -55 -24 -21 -43 -45 -43 -52 0 -8 -8 -19 -17 -26 -14 -10 -25 -7 -67 17
-41 25 -53 28 -73 19 -13 -6 -46 -11 -73 -11 -32 0 -50 -4 -50 -12 0 -9 -3 -9
-12 0 -7 7 -24 12 -40 12 -18 0 -31 7 -39 21 -7 15 -13 18 -18 10 -10 -16
-110 -31 -138 -20 -37 14 -113 20 -113 9 0 -5 4 -10 9 -10 5 0 13 -10 17 -22
4 -13 10 -25 14 -28 4 -3 19 -24 33 -46 32 -52 83 -71 222 -84 55 -5 125 -14
155 -19 97 -18 183 -21 427 -11 225 9 337 23 406 51 29 12 105 107 139 173 19
36 19 44 7 95 -14 61 -54 108 -130 157 -22 14 -44 35 -49 47 -6 15 -9 -5 -10
-68 -1 -49 -5 -99 -10 -110 -7 -17 -9 -16 -9 9 -1 43 -22 95 -40 100 -41 11
-131 17 -131 8 0 -5 -13 -15 -29 -21 -15 -7 -52 -36 -80 -64 -42 -42 -49 -53
-35 -56 11 -2 29 9 44 28 29 34 45 39 54 15 10 -27 7 -44 -9 -44 -8 0 -15 -6
-15 -12 0 -18 -62 -58 -105 -68 -30 -7 -37 -5 -47 14 -6 11 -17 26 -24 31 -9
7 -17 67 -24 185 -18 268 -27 316 -29 143z m476 -355 c-3 -7 -5 -2 -5 12 0 14
2 19 5 13 2 -7 2 -19 0 -25z m-417 -14 c0 -8 -4 -12 -10 -9 -5 3 -10 10 -10
16 0 5 5 9 10 9 6 0 10 -7 10 -16z"/>
<path d="M1681 834 c0 -11 3 -14 6 -6 3 7 2 16 -1 19 -3 4 -6 -2 -5 -13z"/>
</g>
</svg>
